<svg xmlns="http://www.w3.org/2000/svg" viewBox="0 0 32 32" id="bag"><path d="M24 30H8c-.827 0-1.5-.673-1.5-1.5v-18C6.5 8.019 8.519 6 11 6h10c2.481 0 4.5 2.019 4.5 4.5v18c0 .827-.673 1.5-1.5 1.5zM11 7c-1.93 0-3.5 1.57-3.5 3.5v18a.5.5 0 0 0 .5.5h16a.5.5 0 0 0 .5-.5v-18C24.5 8.57 22.93 7 21 7H11z"></path><path d="M8 8.355a.5.5 0 0 1-.5-.5V2.5A.5.5 0 0 1 8 2h4a.5.5 0 0 1 .5.5v4a.5.5 0 0 1-1 0V3h-3v4.855a.5.5 0 0 1-.5.5zm16 .001a.5.5 0 0 1-.5-.5V3h-3v3.5a.5.5 0 0 1-1 0v-4A.5.5 0 0 1 20 2h4a.5.5 0 0 1 .5.5v5.356a.5.5 0 0 1-.5.5zM18 7h-4a.5.5 0 0 1-.5-.5v-1c0-.827.673-1.5 1.5-1.5h2c.827 0 1.5.673 1.5 1.5v1a.5.5 0 0 1-.5.5zm-3.5-1h3v-.5A.5.5 0 0 0 17 5h-2a.5.5 0 0 0-.5.5V6z"></path><path d="M12 16h-1c-.827 0-1.5-.673-1.5-1.5V6.823a.5.5 0 0 1 1 0V14.5a.5.5 0 0 0 .5.5h1a.5.5 0 0 1 0 1zm6 0h-4a.5.5 0 0 1 0-1h4a.5.5 0 0 1 0 1zm3 0h-1a.5.5 0 0 1 0-1h1a.5.5 0 0 0 .5-.5V6.817a.5.5 0 0 1 1 0V14.5c0 .827-.673 1.5-1.5 1.5zm1 14H10a.5.5 0 0 1-.5-.5v-9a.5.5 0 0 1 .5-.5h12a.5.5 0 0 1 .5.5v9a.5.5 0 0 1-.5.5zm-11.5-1h11v-8h-11v8z"></path><path d="M22 23H10a.5.5 0 0 1 0-1h12a.5.5 0 0 1 0 1zM7 21H2a.5.5 0 0 1 0-1h5a.5.5 0 0 1 0 1zm23 0h-5a.5.5 0 0 1 0-1h5a.5.5 0 0 1 0 1z"></path><path d="M12 25a.5.5 0 0 1-.5-.5v-2a.5.5 0 0 1 1 0v2a.5.5 0 0 1-.5.5zm2-8h-2a.5.5 0 0 1-.5-.5v-2a.5.5 0 0 1 .5-.5h2a.5.5 0 0 1 .5.5v2a.5.5 0 0 1-.5.5zm-1.5-1h1v-1h-1v1zM20 28h-3a.5.5 0 0 1-.5-.5v-2a.5.5 0 0 1 .5-.5h3a.5.5 0 0 1 .5.5v2a.5.5 0 0 1-.5.5zm-2.5-1h2v-1h-2v1zM20 17h-2a.5.5 0 0 1-.5-.5v-2a.5.5 0 0 1 .5-.5h2a.5.5 0 0 1 .5.5v2a.5.5 0 0 1-.5.5zm-1.5-1h1v-1h-1v1zM28 30h-4a.5.5 0 0 1 0-1h4a.5.5 0 0 0 .5-.5v-9a.5.5 0 0 0-.5-.5h-3a.5.5 0 0 1 0-1h3c.827 0 1.5.673 1.5 1.5v9c0 .827-.673 1.5-1.5 1.5zM8 30H4c-.827 0-1.5-.673-1.5-1.5v-9c0-.827.673-1.5 1.5-1.5h3a.5.5 0 0 1 0 1H4a.5.5 0 0 0-.5.5v9a.5.5 0 0 0 .5.5h4a.5.5 0 0 1 0 1z"></path></svg>