<svg xmlns="http://www.w3.org/2000/svg" data-name="Layer 1" viewBox="0 0 512 512" id="shirt"><path d="M379.894,41.06A8.07,8.07,0,0,0,373.655,38H138.345a8.068,8.068,0,0,0-6.138,2.938L4.946,193.2a8.021,8.021,0,0,0,.486,10.809l57.089,57.016a7.848,7.848,0,0,0,5.764,2.342,7.993,7.993,0,0,0,5.7-2.5l37.68-39.777L110,465.807a8.158,8.158,0,0,0,2.324,5.761A8.065,8.065,0,0,0,118,474H394a8.118,8.118,0,0,0,8-8.158l-1.65-242.751,31.335,37.426a8,8,0,0,0,11.149,1.1l63.093-50.745a8.042,8.042,0,0,0,1.224-11.278ZM315.327,54A62.947,62.947,0,0,1,298.1,90.494c-11.348,11.842-26.3,18.4-42.1,18.4s-30.749-6.574-42.1-18.416A62.9,62.9,0,0,1,196.673,54ZM127.477,248H384.523l.549,81H126.928Zm-1.425,210,.767-113H385.181l.767,113ZM438.923,244.223l-40.587-48.486a8,8,0,0,0-8.892-2.374,7.82,7.82,0,0,0-5.243,7.423L384.414,232H127.586l.213-31.214a7.907,7.907,0,0,0-5.014-7.406,8.01,8.01,0,0,0-8.794,1.956L68.015,243.891,21.918,197.8,142.084,54h38.473c3.871,40,36.228,70.789,75.443,70.789S327.572,94,331.443,54h38.376L489.673,203.338Z"></path></svg>