<svg xmlns="http://www.w3.org/2000/svg" width="48" height="48" id="shoes"><path d="M47.175 44h-46a1 1 0 0 1-1-1V29c0-1.654 1.346-3 3-3h2a1 1 0 0 1 1 1c0 .667 2.594 2 6 2 4.093 0 6-1.193 6-2a.999.999 0 0 1 1.336-.941l26.673 9.526a3.005 3.005 0 0 1 1.991 2.824V43a1 1 0 0 1-1 1zm-45-2h44v-3.591c0-.421-.267-.8-.663-.941l-25.674-9.169C18.906 29.975 16.102 31 12.175 31c-3.298 0-6.819-1.123-7.759-3H3.175a1 1 0 0 0-1 1v13z"></path><path d="M1.175 38h46v2h-46zM22.175 32a.999.999 0 0 1-.709-1.706l2.151-2.16a1.001 1.001 0 0 1 1.418 1.412l-2.151 2.16a1.003 1.003 0 0 1-.709.294zM26.175 33a.999.999 0 0 1-.707-1.707l1.842-1.842a.999.999 0 1 1 1.414 1.414l-1.842 1.842a.997.997 0 0 1-.707.293z"></path><path d="M25.175 39h-2v-1c0-2.206 1.794-4 4-4h6c.477 0 1-.673 1-1.285h2c0 1.554-1.232 3.285-3 3.285h-6c-1.103 0-2 .897-2 2v1zM7.175 40a1 1 0 0 1-1-1c0-2.757-2.243-5-5-5a1 1 0 1 1 0-2c3.859 0 7 3.141 7 7a1 1 0 0 1-1 1zM29.175 22a1 1 0 0 1-.336-.059L2.166 12.415A3.005 3.005 0 0 1 .175 9.591V5a1 1 0 0 1 1-1h46a1 1 0 0 1 1 1v14c0 1.654-1.346 3-3 3h-2a1 1 0 0 1-1-1c0-.667-2.594-2-6-2-4.093 0-6 1.193-6 2a.999.999 0 0 1-1 1zm14.759-2h1.241a1 1 0 0 0 1-1V6h-44v3.591c0 .421.267.8.663.941l25.674 9.169C29.443 18.025 32.248 17 36.175 17c3.298 0 6.819 1.123 7.759 3z"></path><path d="M1.175 8h46v2h-46zM24.023 20.16a.999.999 0 0 1-.709-1.706l2.151-2.16a1.001 1.001 0 0 1 1.418 1.412l-2.151 2.16a.999.999 0 0 1-.709.294zM20.333 18.842a.999.999 0 0 1-.707-1.707l1.842-1.842a.999.999 0 1 1 1.414 1.414l-1.842 1.842a.997.997 0 0 1-.707.293z"></path><path d="M14.175 15.285h-2c0-1.554 1.232-3.285 3-3.285h6c1.103 0 2-.897 2-2V9h2v1c0 2.206-1.794 4-4 4h-6c-.477 0-1 .673-1 1.285zM47.175 16c-3.859 0-7-3.141-7-7a1 1 0 1 1 2 0c0 2.757 2.243 5 5 5a1 1 0 1 1 0 2z"></path></svg>